<svg id="Layer_1" data-name="Layer 1" xmlns="http://www.w3.org/2000/svg" viewBox="0 0 720 1282"><title>mascara_celular</title><path d="M411.41,302.15c-.22-.41-.68-.68-1-1a1.74,1.74,0,0,0-3,.09,19.72,19.72,0,0,0-1.38,2.3A166.15,166.15,0,0,1,385,332.15c-10.22,11.34-22,21-34.2,30.12a191,191,0,0,1-21,13.6c-5.81,3.25-11.59,6.84-17.83,9-6.5,2.23-12.68,5.29-19.45,7-7.18,1.76-14.13,4.47-21.6,5.06-2.57,3-6.6.42-9.76,2.64-1.8,1.27-2.32,1.15-1.25,3.24,3.85,7.54,8.89,14.42,12.32,22.2a6.1,6.1,0,0,0,3,3c.9.36,2.28-.76,3.45-.74,5.35.07,10-2.63,15-3.8,4.71-1.09,9.19-3.19,13.76-4.9,7.68-2.87,15.39-5.66,23-8.76,2.25-.92,3.94-3.3,6.2-4.08,5.15-1.78,9.64-4.71,14.11-7.59q10.9-7,21.18-15c8.45-6.54,17.07-12.81,24.5-20.52,5.4-5.59,11.09-10.86,15.94-17.05,3.69-4.71,7.48-9.36,11-14.2a32,32,0,0,0,1.66-2.82c-.42-.88-.68-1.49-1-2.08Q417.78,314.26,411.41,302.15Z" transform="translate(0 2)"/><path d="M295.5,353.14c1.33.86,2.74,1.52,4.23-1.27,3-5.56,7.18-10.46,10.79-15.69,3-4.41,2.64-7-1.72-9.83-5.47-3.5-11.13-6.71-16.65-10.12-5.74-3.55-11.37-7.26-17.13-10.76-2.46-1.49-5.13-2.63-7.6-3.88-.93.3-1.76.32-2.17.75a51,51,0,0,0-4.58,5.28c-2.64,3.67-5.08,7.49-7.66,11.2-3.29,4.73-3,6.15,1.94,8.93,1,.54,2,.9,3,1.46,5.21,3.07,10.49,6,15.56,9.3C280.89,343.29,288.09,348.38,295.5,353.14Z" transform="translate(0 2)"/><path d="M284.83,280.22c12.93,6.86,25.05,15,37.15,23.17,1.83,1.23,3.85,2.17,5.79,3.25,2-.27,2.65-.67,3.72-2.61,2.95-5.33,6.95-10.08,10.45-15.11,3-4.28,2.65-5.77-1.8-8.67-3.58-2.34-7.34-4.42-10.78-6.95-9.06-6.69-18.92-12.05-28.7-17.53-3.22-1.81-3.39-1.75-5.63.88a19.68,19.68,0,0,0-1.26,1.63c-3.49,5.27-6.94,10.56-10.44,15.82C281.49,276.87,281.82,278.63,284.83,280.22Z" transform="translate(0 2)"/><path d="M417.62,251.92c-2.37-3.29-3.79-3.54-7.43-2.14-3.37,1.29-6.31,3.3-9.63,4.53-3.65,1.36-3.85,1.9-2,4.76,4.64,7.14,10.26,13.67,13.34,21.8.7,1.86,2.24,3.4,3.46,5s2.93,2,4.91,1c3.56-1.81,7.22-3.43,10.73-5.32,1.11-.6,1.88-1.83,2.93-2.9-.71-1.37-1.25-2.33-1.72-3.32C428.17,267.06,423,259.45,417.62,251.92Z" transform="translate(0 2)"/><path d="M384.5,293.18c.87,1.81,1.64,4.18,3.15,5,1,.53,3.19-1.84,4.92-2,4.07-.29,6.95-3,10.41-4.44a18.71,18.71,0,0,0,2.06-1.18,23.12,23.12,0,0,0-1.07-3.05c-2.84-5.29-5.67-10.59-8.63-15.82-2.09-3.7-4.31-7.34-6.6-10.92-1.08-1.68-2.77-3-4.82-2.09-4.68,2-9.27,4.23-13.84,6.49-.94.47-1.51,1.07-.4,2.56A152.29,152.29,0,0,1,384.5,293.18Z" transform="translate(0 2)"/><path d="M0-2V609l720-7V-2ZM557.11,321a35.46,35.46,0,0,1-2.87,13.15c-1.66,4.1-4.42,7.81-7,11.48-6.37,9-14.64,16-23.58,22.56-13.18,9.65-27.27,17.92-40.42,27.49-9.85,7.17-19.78,14.33-29,22.45a399.52,399.52,0,0,0-29.56,28.91,249.51,249.51,0,0,0-23,29.18C396,484.5,390.33,492.72,384.77,501c-3,4.5-6,9.05-8.93,13.58-1.61,2.45-2.93,5.16-4.87,7.32-6.66,7.38-13.22,14.9-20.42,21.73-4.71,4.45-10.78,7.08-17.17,8.81-8.84,2.4-17.85,3.63-26.87,2.61-3.38-.38-6.78-1-10.22-1.27a38.57,38.57,0,0,1-10.42-2.6c-3.14-1.17-7-.5-10.05-1.81-5.52-2.37-11.28-4-16.78-6.43-7.55-3.27-15-6.7-22.26-10.59A237.61,237.61,0,0,1,209.42,515a146.07,146.07,0,0,1-20.65-17.88c-2.12-2.24-4.77-3.83-6.63-6.46s-4.87-4.64-7-7.23a264.17,264.17,0,0,1-22.58-31.65c-4.49-7.48-8.15-15.34-12-23.1-2.87-5.73-8.86-23-11.12-31.41-1.27-4.7-2-9.58-3.86-14.22-1.2-2.92-.84-6.7-1.57-10.12a89.12,89.12,0,0,1-1.64-21c.08-3.17.8-6.42-1.22-9.58-.88-1.36-.77-4,0-5.61,2.43-5.26.7-10.71,1.38-16,.4-3.17-1-6.34,1.18-9.62,1.53-2.27-1.2-6.11,1.65-8.63-.74-5.89,1.62-11.27,2.94-16.79a205,205,0,0,1,8.5-27.42c1.95-4.95,4.32-9.71,6.15-14.74,2.11-5.79,6.07-10.88,9-16.39,2.67-5,6.15-9.49,9.4-14.12,4.08-5.82,7.85-11.86,12.86-17,5.25-5.41,9.81-11.56,15.4-16.57,8.06-7.2,16.52-13.94,25.29-20.35,11.16-8.17,23.27-14.33,35.49-20.5,8.18-4.13,16.93-6.66,25.55-9.56a124.52,124.52,0,0,1,25-5.75c3-3.07,7.06-.69,10.6-2.23,3-1.32,7.14.1,10.49-.78,6.51-1.71,13.05-1.13,18.55-1.31,3.68,0,6.36.29,8.95-.07,4.08-.56,7.75,1.17,11.65,1.52s7.71-.36,11.73,1.2,8.69.89,13,1.74c6.15,1.23,12.24,2.81,18.29,4.5,4.06,1.13,8,2.76,12,4.05a86.57,86.57,0,0,1,11.78,4.55c8.56,4.25,17.48,7.86,25.52,13.18,4.14,2.73,8.43,5.21,12.54,8,4.89,3.35,9.53,7,14.34,10.41,8.16,5.79,14.84,13.24,21.82,20.34,3.09,3.15,5.67,6.81,8.72,10s4.9,7.24,7.71,10.46C529,221,535.15,235.57,542.76,249.3c2.45,4.43,3.94,9.4,5.66,14.2,1.65,4.61,3.17,9.27,4.5,14,1.16,4.11,1.84,8.35,2.94,12.47C558.62,300.21,557.05,310.67,557.11,321Z" transform="translate(0 2)"/><path d="M164.37,945.36q0,25,0,49.93c0,1.79-.31,3.33,2.55,3.27,9.33-.19,18.67.19,28-.15s18.8,1.29,28.17-1.27c3.86-1.06,8.09-.49,12.23-1.52,11-2.77,20.9-7.39,29.37-15,5.29-4.74,8.34-11,11.11-17.33,2.5-5.68,2.63-12.07,3.58-18.18.76-5-1.06-9.67-1.47-14.51a33.71,33.71,0,0,0-10.21-21.4c-3.93-3.88-9-6.77-14.23-9.22-10.86-5-22.54-6.43-34-7.14-17.33-1.08-34.78-.25-52.18-.34-2.28,0-2.94.6-2.93,2.91C164.42,912.07,164.37,928.72,164.37,945.36Z" transform="translate(0 2)"/><path d="M274.41,1055.12a50,50,0,0,0-16.3-9.72c-4.39-1.57-8.91-2.8-13.19-4.62s-8.8-2.31-13.16-2.72c-4.84-.47-9.65-1.54-14.46-1.63-16.37-.3-32.74-.13-49.11-.11-3.77,0-3.81,0-3.81,4.17q0,26.44,0,52.89V1144c0,1.76.07,3.53,0,5.29s.7,2,2.23,2c10.08,0,20.16.27,30.22-.11s20.33,1.64,30.39-1.33c2.31-.68,5,.1,7.52-.15a70.22,70.22,0,0,0,7.68-1.47c3.23-.7,6.53-1.23,9.66-2.24,11.66-3.79,17.4-8,26.16-16.88,7.73-7.79,10-17.79,11.43-27.72a60.59,60.59,0,0,0-1-22A45.19,45.19,0,0,0,274.41,1055.12Z" transform="translate(0 2)"/><path d="M0,599v681H720V587Zm339.8,499c-2.18,13.75-4.29,27.61-12.08,39.6-6.09,9.38-12.83,18.1-22.15,24.89-6.19,4.5-12.21,9.34-19.1,12.48-8.9,4-18.06,7.67-27.77,9.67-8.91,1.84-17.81,3.47-26.82,4.85-8.22,1.26-16.28,1-24.39,1-27.73.24-55.47.09-83.21.09-6.8,0-6.81,0-6.81-6.49v-323c0-1.51.12-3,0-4.54-.25-2.42.09-3.69,3.15-3.47,4.77.35,9.58.09,14.37.09,32.27,0,64.55-.31,96.82.21,9,.14,18,1.9,27,3.81,7.69,1.64,14.87,4.41,22.32,6.52,6.26,1.77,11.46,5.38,16.78,8.8a43.59,43.59,0,0,1,6.32,4.82C314.76,887.3,322.14,899,325,913.45c.6,3.1.48,6.39,1.51,9.18a26.36,26.36,0,0,1,1.3,9.28c0,3.28.55,6.67-.1,9.81-1.34,6.36-.87,13.07-3.07,19.14-2.12,5.88-4.09,11.84-7.26,17.43A63.68,63.68,0,0,1,293,1003c-4.87,2.75-10,5.1-15,7.58a23.5,23.5,0,0,1-2.89,1,12.4,12.4,0,0,0,3,2c5.14,1.62,10.67,2.38,15.41,4.76,6.1,3,12.4,6,17.47,10.87,2.09,2,4.9,3.29,6.77,5.44,9,10.28,16.68,21.19,19.44,35.09.61,3.11.18,6.58,1.48,9.14,1.62,3.2,1.1,6.22,1.26,9.32A48.08,48.08,0,0,1,339.8,1098Zm254,1.86c-1.06,4.62-1.71,9.39-2.48,14-1.65,9.93-5.18,19-9.28,28-2.38,5.24-6,9.62-8.94,14.43-5.5,8.91-13.7,15.14-22.29,20.7-5.46,3.54-11.48,6.27-17.4,9.06-2.94,1.38-6.25,1.94-9.29,3.13s-6.35,1.5-9.47,2.69-7.29-.39-10.6,1.81c-10.58,0-21.27.89-31.73-.3a163,163,0,0,1-23.15-4.07c-7.27-1.92-14.34-4.47-21.64-6.26-.87-.22-1.57-1.06-2.42-1.46-3.58-1.7-7.19-3.33-10.78-5-.11-4-.29-8-.31-12q-.06-16.65,0-33.28c0-3,.26-3.21,3.09-1.17a119.53,119.53,0,0,0,22.12,12.35c10.5,4.57,14.86,7.24,27.37,8.78,3.76,3.12,8.46.91,12.68,2.19a32.41,32.41,0,0,0,13.28.71c9.1-1.19,18.3-2.24,26.47-7.24,7.28-4.45,13.91-9.35,17.58-17.44,1.64-3.62,3.95-6.93,5.7-10.5,1.65-3.38,1-7.52,3.23-10.77a1.06,1.06,0,0,0,.09-.71c-1.08-5.49,1.52-10.63,1.52-16V897.91a21.47,21.47,0,0,1,0-2.27c.23-2-.09-3.41-2.69-3.11a44.43,44.43,0,0,1-5.29,0H426.49c-1.76,0-3.53-.06-5.29,0s-2.73-.1-2.71-2.34c.12-11.6.08-23.2,0-34.79,0-1.54.33-2.35,2-2.24,1.51.09,3,0,4.54,0h162.6a28.35,28.35,0,0,1,4.52.08,2.55,2.55,0,0,1,1.76,1.58,38.7,38.7,0,0,1,.08,5.28V1084.8C594.05,1089.84,594.91,1095.08,593.8,1099.87Z" transform="translate(0 2)"/></svg>